<svg xmlns="http://www.w3.org/2000/svg" xmlns:xlink="http://www.w3.org/1999/xlink" width="161" height="182"><defs><path id="a" d="M76.3.9l-4 7 4 7h8.2l4-7-4-7M58.3 11.3l-4.1 7 4 7.1h8.2l4-7-4-7m28 0l-4 7 4 7h8.1l4-7-4-7M40.2 21.6l-4 7 4 7.1h8.1l4-7-4-7m28 0l-4 7 4 7h8.2l4-7-4-7m28 0l-4.1 7 4 7h8.2l4-7-4-7M22 32.2l-4 7 4 7h8.2l4-7-4-7m28 0l-4.1 7 4 7h8.2l4-7-4-7m28 0l-4 7 4 7h8.1l4-7-4-7m28 0l-4 7 4 7.1h8.2l4-7-4-7M4 42.5l-4.1 7 4 7h8.2l4-7-4-7m28 0l-4 7 4 7.1h8.1l4-7-4-7m28 0l-4 7 4 7h8.2l4-7-4-7m28 0l-4.1 7 4 7h8.2l4-7-4-7m28 0l-4 7 4 7h8.1l4.1-7-4-7M22 53l-4 7 4 7.1h8.2l4-7-4-7m28 0l-4 7 4 7h8.1l4-7-4-7m28 0l-4 7 4 7h8.1l4.1-7-4-7m28 0l-4.1 7 4 7h8.2l4-7-4-7M4 63.5l-4 7 4 7h8.1l4-7-4-7m28 0l-4 7 4 7h8.1l4.1-7-4-7m28 0l-4.1 7 4 7h8.2l4-7-4-7m28 0l-4 7 4 7h8.1l4-7-4-7M22.1 74l-4 7 4 7.1h8.2l4-7-4-7m28 0l-4 7 4 7h8.1l4-7-4-7m28 0l-4 7 4 7h8.1l4.1-7-4-7M4 84.2l-4 7 4 7.1h8.1l4-7-4-7m28 0l-4 7 4 7h8.1l4.1-7-4-7m28 0l-4.1 7 4 7h8.2l4-7-4-7m64.2 0l-4.1 7.1 4 7h8.2l4-7-4-7M22 94.8l-4 7 4 7h8.2l4-7-4-7m28 0l-4 7 4 7h8.1l4-7-4-7m64.2 0l-4 7.1 4 7h8.1l4-7-4-7M4.1 105.2l-4 7 4 7.1h8.1l4-7-4-7m28 0l-4 7 4 7h8.1l4.1-7-4-7m28 0l-4 7 4 7h8.1l4-7-4-7m64.2 0l-4.1 7 4 7.1h8.2l4-7-4-7M22.2 115.6l-4.1 7 4 7h8.2l4-7-4-7m28 0l-4 7 4 7.1h8.2l4-7-4-7m64.1 0l-4 7 4 7h8.1l4-7-4-7M4.1 126l-4 7 4 7h8.1l4-7-4-7m28 0l-4 7.1 4 7h8.2l4-7-4-7m28 0l-4 7 4 7h8.1l4-7-4-7m28 0l-4 7 4 7h8.2l4-7-4-7m28 0l-4.1 7 4 7h8.2l4-7-4-7M22.2 136.6l-4 7 4 7h8.1l4.1-7-4-7m28 0l-4.1 7 4 7h8.2l4-7-4-7m28 0l-4 7 4 7.1h8.1l4-7-4-7m28 0l-4 7 4 7h8.1l4.1-7-4-7M40.2 147l-4 7 4 7.1h8.1l4-7-4-7m28 0l-4 7 4 7h8.1l4.1-7-4-7m28 0l-4.1 7 4 7h8.2l4-7-4-7m-62.4 10.4l-4 7 4 7h8.2l4-7-4-7m28 0l-4 7 4 7h8.1l4-7-4-7m-26.2 10.4l-4 7 4 7.1h8.1l4.1-7-4-7h-8.2"/></defs><g fill="none" fill-rule="evenodd"><path fill="#1A1919" d="M76.3.9l-4 7 4 7h8.2l4-7-4-7h-8.2zm-18 10.4l-4.1 7 4 7.1h8.2l4-7-4-7h-8.1zm36 0l-4 7 4 7.1h8.2l4-7-4-7h-8.1zM40.3 21.7l-4 7 4 7.1h8.1l4-7-4-7h-8.1zm36.1 0l-4 7.1 4 7h8.2l4-7-4-7h-8.2zm36.2 0l-4.1 7.1 4 7h8.2l4-7-4-7h-8.1zM22 32.3l-4 7 4 7h8.2l4-7-4-7H22zm36.2 0l-4.1 7 4 7h8.2l4-7-4-7h-8.1zm36.1 0l-4 7 4 7h8.1l4-7-4-7h-8.1zm36.1 0l-4 7 4 7.1h8.2l4-7-4-7h-8.2zM4.1 42.6l-4.1 7 4 7h8.2l4-7-4-7H4.1zm36.1 0l-4 7 4 7.1h8.1l4-7-4-7h-8.1zm36.1 0l-4 7 4 7.1h8.2l4-7-4-7h-8.2zm36.2 0l-4.1 7 4 7.1h8.2l4-7-4-7h-8.1zm36.1 0l-4 7 4 7.1h8.1l4.1-7-4-7h-8.2zM22.1 53l-4 7 4 7.1h8.2l4-7-4-7H22zm36.2 0l-4 7.1 4 7h8.1l4-7-4-7h-8.1zm36.1 0l-4 7.1 4 7h8.1l4.1-7-4-7h-8.2zm36.1 0l-4 7.1 4 7h8.2l4-7-4-7h-8.2zM4.1 63.6l-4 7 4 7h8.1l4-7-4-7H4.1zm36.1 0l-4 7 4 7h8.1l4.1-7-4-7h-8.2zm36.1 0l-4 7 4 7h8.2l4-7-4-7h-8.2zm36.2 0l-4 7 4 7h8.1l4-7-4-7h-8.1zM22 74l-4 7 4 7.1h8.2l4-7-4-7H22zm36.2 0l-4 7 4 7.1h8.1l4-7-4-7h-8.1zm36.1 0l-4 7 4 7.1h8.1l4.1-7-4-7h-8.2zM4.1 84.3l-4 7 4 7.1h8.1l4-7-4-7H4.1zm36.1 0l-4 7.1 4 7h8.1l4.1-7-4-7h-8.2zm36.1 0l-4 7.1 4 7h8.2l4-7-4-7h-8.2zm72.4.2l-4.1 7 4 7h8.2l4-7-4-7h-8.1zM22 94.8l-4 7 4 7h8.2l4-7-4-7H22zm36.2 0l-4 7 4 7h8.1l4-7-4-7h-8.1zm72.3 0l-4 7.1 4 7h8.1l4-7-4-7h-8.1zM4 105.3l-4 7 4 7.1h8.1l4-7-4-7H4.1zm36.1 0l-4 7 4 7.1h8.1l4.1-7-4-7h-8.2zm36.2.1l-4 7 4 7h8.1l4-7-4-7h-8.1zm72.3 0l-4.1 7 4 7.1h8.2l4-7-4-7h-8.1zM22.2 115.7l-4.1 7 4 7h8.2l4-7-4-7h-8.1zm36.1 0l-4 7 4 7.1h8.2l4-7-4-7h-8.2zm72.3 0l-4 7.1 4 7h8.1l4-7-4-7h-8.1zM4.1 126.2l-4 7 4 7h8.1l4-7-4-7H4.1zm36.2 0l-4.1 7.1 4 7h8.2l4-7-4-7h-8.1zm36.1 0l-4 7.1 4 7h8.1l4-7-4-7h-8.1zm36.1 0l-4 7.1 4 7h8.2l4-7-4-7h-8.2zm36.2.1l-4.1 7 4 7h8.2l4-7-4-7h-8.1zM22.2 136.6l-4 7 4 7h8.1l4.1-7-4-7h-8.2zm36.1 0l-4 7 4 7h8.2l4-7-4-7h-8.2zm36.2 0l-4 7 4 7.1h8.1l4-7-4-7h-8.1zm36.1 0l-4 7 4 7.1h8.1l4.1-7-4-7h-8.2zM40.3 147l-4 7 4 7.1h8.1l4-7-4-7h-8.1zm36.1 0l-4 7 4 7.1h8.1l4.1-7-4-7h-8.2zm36.1 0l-4 7.1 4 7h8.2l4-7-4-7h-8.2zm-54.2 10.5l-4 7 4 7h8.2l4-7-4-7h-8.2zm36.2 0l-4 7 4 7h8.1l4-7-4-7h-8.1zm-18 10.4l-4.2 7 4.1 7.1h8.1l4.1-7-4-7h-8.2z"/><mask id="b" fill="#fff"><use xlink:href="#a"/></mask><path fill="#1A1919" d="M-78.4 136.7L40.2-68.8l199.1 115-118.7 205.5-199-115" mask="url(#b)"/></g></svg>